<svg xmlns="http://www.w3.org/2000/svg" viewBox="0 0 420 145" width="420" height="145"><path d="M400.34 32.44L400.34 20.97L388.87 20.97L388.87 9.5L380.06 9.5L377.4 9.5L42.6 9.5L38.49 9.5L31.13 9.5L31.13 20.97L19.66 20.97L19.66 32.44L8.19 32.44L8.19 43.91L8.19 104.04L8.19 115.51L19.66 115.51L19.66 126.98L31.13 126.98L31.13 138.45L38.49 138.45L42.6 138.45L377.4 138.45L380.06 138.45L388.87 138.45L388.87 126.98L400.34 126.98L400.34 115.51L411.81 115.51L411.81 104.04L411.81 43.91L411.81 32.44L400.34 32.44" fill="#70000e"/></svg>